<svg xmlns="http://www.w3.org/2000/svg" id="b" width="170" height="170" viewBox="0 0 170 170">
  <path d="M163.535,50.398L119.602,6.464c-.938-.938-2.209-1.464-3.535-1.464h-62.133c-1.326,0-2.598.527-3.535,1.464L6.465,50.398c-.938.938-1.465,2.209-1.465,3.536v62.132c0,1.326.526,2.598,1.465,3.536l43.934,43.934c.938.938,2.209,1.464,3.535,1.464h62.133c1.326,0,2.598-.527,3.535-1.464l43.934-43.934c.938-.938,1.465-2.209,1.465-3.536v-62.132c0-1.326-.526-2.598-1.465-3.536ZM155,113.995l-41.005,41.005h-57.99L15,113.995v-57.989L56.005,15h57.99l41.005,41.005v57.989Z"/>
  <path d="M104.193,74.323v-7.301c0-10.583-8.61-19.193-19.193-19.193s-19.193,8.61-19.193,19.193v7.301h-5.352c-5.188,0-9.409,4.221-9.409,9.409v29.031c0,5.188,4.221,9.409,9.409,9.409h49.09c5.188,0,9.409-4.221,9.409-9.409v-29.031c0-5.188-4.221-9.409-9.409-9.409h-5.352ZM75.807,67.021c0-5.069,4.124-9.193,9.193-9.193s9.193,4.124,9.193,9.193v7.301h-18.387v-7.301ZM108.954,112.172h-47.908v-27.849h47.908v27.849Z"/>
</svg>
