<svg xmlns="http://www.w3.org/2000/svg" width="24" height="24" fill="none"><path fill="currentColor" fill-rule="evenodd" d="M7.25 4.5A2.75 2.75 0 0 1 10 1.75h4a2.75 2.75 0 0 1 2.75 2.75v.045c0 .433 0 .83-.043 1.152-.048.356-.16.731-.47 1.04-.309.31-.684.422-1.04.47-.323.043-.72.043-1.152.043h-4.09c-.433 0-.83 0-1.152-.043-.356-.048-.731-.16-1.04-.47-.31-.309-.422-.684-.47-1.04-.043-.323-.043-.72-.043-1.152V4.5ZM10 3.25c-.69 0-1.25.56-1.25 1.25 0 .493.002.787.03.997a.706.706 0 0 0 .042.177l.001.003.003.001a.706.706 0 0 0 .177.042c.21.028.504.03.997.03h4c.493 0 .787-.002.997-.03a.705.705 0 0 0 .177-.042l.003-.001.001-.003a.704.704 0 0 0 .042-.177c.028-.21.03-.504.03-.997 0-.69-.56-1.25-1.25-1.25h-4ZM8.823 5.677Z" clip-rule="evenodd"/><path fill="currentColor" d="M8 3.75h-.058c-.409 0-.687 0-.931.032a3.75 3.75 0 0 0-3.229 3.229c-.032.244-.032.522-.032.931v7.613c0 1.367 0 2.47.117 3.337.12.9.38 1.658.981 2.26.602.602 1.36.86 2.26.982.867.116 1.97.116 3.337.116h3.11c1.367 0 2.47 0 3.337-.116.9-.122 1.658-.38 2.26-.982.602-.602.86-1.36.982-2.26.116-.867.116-1.97.116-3.337V7.942c0-.409 0-.687-.032-.931a3.75 3.75 0 0 0-3.229-3.229c-.244-.032-.523-.032-.931-.032H16v1.5c.488 0 .66.002.794.02a2.25 2.25 0 0 1 1.937 1.936c.017.134.019.306.019.794v7.5c0 1.435-.002 2.436-.103 3.192-.099.734-.28 1.122-.556 1.399-.277.277-.665.457-1.4.556-.754.101-1.756.103-3.191.103h-3c-1.435 0-2.437-.002-3.192-.103-.734-.099-1.122-.28-1.399-.556-.277-.277-.457-.665-.556-1.4-.101-.755-.103-1.756-.103-3.191V8c0-.488.002-.66.02-.794A2.25 2.25 0 0 1 7.205 5.27c.134-.017.306-.019.794-.019v-1.5Z"/><path fill="currentColor" d="M16.03 12.03a.75.75 0 1 0-1.06-1.06l-3.47 3.47-1.47-1.47a.75.75 0 1 0-1.06 1.06l2 2a.75.75 0 0 0 1.06 0l4-4Z"/></svg>