<svg xmlns="http://www.w3.org/2000/svg" width="655.359" height="655.359" fill-rule="evenodd" clip-rule="evenodd" image-rendering="optimizeQuality" shape-rendering="geometricPrecision" text-rendering="geometricPrecision" viewBox="0 0 6827 6827"><path fill-rule="nonzero" d="M1395 1130h4037c142 0 271 59 364 154 93 94 151 224 151 367v2595c0 482-373 518-700 520l212 831c11 43-15 86-58 97-26 7-52 0-71-16l-1209-912H1395c-142 0-271-59-364-154-93-94-151-224-151-367V1650c0-143 58-273 151-367 93-95 222-154 364-154zm4037 160H1395c-97 0-186 40-250 105-65 65-105 156-105 255v2595c0 100 40 190 105 255 64 65 153 105 250 105h2753c17 0 34 5 48 16l1051 793-181-710c-2-6-2-13-2-20 0-44 36-80 80-80h24c272 0 619 1 619-361V1648c0-100-40-190-105-255-64-65-153-105-250-105z"/></svg>