<svg xmlns="http://www.w3.org/2000/svg" width="2000" height="2000" enable-background="new 0 0 2000 2000" viewBox="0 0 2000 2000"><path d="M1478.1914,404.4805h-354.9023V304.0352c0-69.4863-55.3076-126.0176-123.2891-126.0176
		c-67.9805,0-123.2871,56.5313-123.2871,126.0176v100.4453H521.8105c-16.5684,0-30,13.4316-30,30v1357.502
		c0,16.5684,13.4316,30,30,30h956.3809c16.5684,0,30-13.4316,30-30V434.4805
		C1508.1914,417.9121,1494.7598,404.4805,1478.1914,404.4805z M936.7129,304.0352c0-36.4023,28.3906-66.0176,63.2871-66.0176
		c34.8975,0,63.2891,29.6152,63.2891,66.0176v100.4453H936.7129V304.0352z M1448.1914,1761.9824H551.8105V464.4805h896.3809
		V1761.9824z"/><path d="M763.3389,1114.3682c30.7275,30.7285,66.5176,54.8564,106.376,71.7158c41.2813,17.4609,85.1152,26.3145,130.2852,26.3145
		c45.1709,0,89.0059-8.8535,130.2871-26.3145c39.8594-16.8594,75.6494-40.9873,106.377-71.7158s54.8555-66.5186,71.7139-106.377
		c17.46-41.2822,26.3135-85.1162,26.3135-130.2861s-8.8535-89.0049-26.3135-130.2861
		c-16.8584-39.8584-40.9863-75.6494-71.7139-106.377s-66.5186-54.8555-106.377-71.7148
		c-41.2813-17.46-85.1162-26.3135-130.2871-26.3135c-45.1699,0-89.0039,8.8535-130.2852,26.3135
		c-39.8584,16.8594-75.6484,40.9873-106.376,71.7148c-30.7275,30.7285-54.8555,66.5186-71.7148,106.377
		c-17.46,41.2813-26.3135,85.1162-26.3135,130.2861s8.8535,89.0039,26.3135,130.2861
		C708.4834,1047.8496,732.6113,1083.6396,763.3389,1114.3682z M1000,603.0137c151.4658,0,274.6914,123.2266,274.6914,274.6914
		c0,151.4668-123.2256,274.6934-274.6914,274.6934c-151.4639,0-274.6895-123.2266-274.6895-274.6934
		C725.3105,726.2402,848.5361,603.0137,1000,603.0137z"/><path d="M1000,887.5293c70.376,0,127.6309-57.2559,127.6309-127.6328S1070.376,632.2637,1000,632.2637
		c-70.375,0-127.6289,57.2559-127.6289,127.6328S929.625,887.5293,1000,887.5293z M1000,692.2637
		c37.292,0,67.6309,30.3398,67.6309,67.6328S1037.292,827.5293,1000,827.5293c-37.291,0-67.6289-30.3398-67.6289-67.6328
		S962.709,692.2637,1000,692.2637z"/><path d="M862.0137 1072.5049c26.6162 8.1416 61.3125 12.626 97.6973 12.626h80.5801c36.3848 0 71.0801-4.4844 97.6973-12.626 48.1104-14.7178 58.209-38.5166 58.209-55.8896 0-61.248-48.6387-114.3418-118.2793-129.1123-10.3428-2.1924-21.0732 1.2168-28.25 8.9785-12.9629 14.0176-30.6016 21.7373-49.668 21.7373-19.0645 0-36.7041-7.7207-49.6689-21.7383-7.1768-7.7607-17.9092-11.1709-28.249-8.9775-69.6387 14.7695-118.2754 67.8623-118.2754 129.1123C803.8066 1033.9883 813.9053 1057.7871 862.0137 1072.5049zM920.2539 950.2129c22.4922 17.9658 50.6826 28.0059 79.7461 28.0059 29.0654 0 57.2559-10.0391 79.7471-28.0059 30.4531 10.7861 52.2637 33.5811 55.9102 58.9043-4.5566 2.4346-13.1025 5.9502-26.9688 9.1191-19.4531 4.4463-43.7432 6.8945-68.3975 6.8945h-80.5801c-24.6543 0-48.9453-2.4482-68.3965-6.8945-13.8652-3.1689-22.4111-6.6836-26.9678-9.1191C867.9932 983.7939 889.8018 960.998 920.2539 950.2129zM1286.4746 1336.0137H750.7051c-16.5684 0-30 13.4316-30 30s13.4316 30 30 30h535.7695c16.5684 0 30-13.4316 30-30S1303.043 1336.0137 1286.4746 1336.0137zM1185.6172 1583.3926H851.5586c-16.5684 0-30 13.4316-30 30s13.4316 30 30 30h334.0586c16.5684 0 30-13.4316 30-30S1202.1855 1583.3926 1185.6172 1583.3926z"/></svg>