<svg xmlns="http://www.w3.org/2000/svg" width="24" height="24" viewBox="0 0 24 24" fill="currentColor"><path d="M20.5 11.1l-2.4-4.1c-.4-.7-1.1-1-1.9-1h-1.5l-1.9-1.9c-.6-.6-1.5-.6-2.1 0L9.2 5.6 7.8 5c-.7-.3-1.5-.1-2 .5L3.5 8.6c-.5.6-.5 1.5.1 2l1.1 1 .1.1-1.2 1.2c-.6.6-.6 1.5 0 2.1l.7.7c.3.3.7.4 1.1.4s.8-.2 1.1-.4l.2-.2.5.5c.3.3.7.4 1.1.4s.8-.2 1.1-.4l.2-.2c.3.3.7.4 1.1.4s.8-.2 1.1-.4l.4-.4c.3.2.6.4 1 .4.4 0 .8-.2 1.1-.4l.7-.7c.1-.1.2-.2.2-.3l2.4 1.4c.3.2.6.2.9.2.5 0 .9-.2 1.2-.6l1.8-2.8c.5-.7.3-1.6-.4-2.1zM5.7 14.6l-.7-.7 1.2-1.2 1.1.9-.5.5c-.3.3-.8.5-1.1.5zm2.8.5l-.5-.5.9-.9.9.7-.2.2c-.3.4-.8.5-1.1.5zm2.8.1l-.5-.5.7-.7 1 .8-.2.2c-.2.1-.7.2-1 .2zm3.2-.8l-.7.7-1.3-1-.9-.7-1.2-1-1.5-1.2-1.3-1.1L5.7 9.5l2-2.7 1.5.7 1.6 1.3 2.4 2c.3.2.7.2 1 0 .3-.3.3-.7 0-1l-2.4-2-1-1.1 1.5-1.5 2.1 2.1h2.1l2.3 4-1.7 2.6-2.8-1.6-.2-.2c-.3-.1-.8 0-1.1.3-.3.3-.3.7-.1 1l.1.1z"/></svg>
