<svg xmlns="http://www.w3.org/2000/svg" width="24" height="24" viewBox="0 0 24 24" fill="currentColor"><path d="M19.89 9.55C19.78 9.22 19.47 9 19.12 9H14.1l1.83-6.09c.09-.3.02-.62-.19-.85s-.53-.33-.84-.24l-8 2.67c-.35.12-.58.44-.58.81v5.7c0 .34.2.64.52.77l3.39 1.36-3.35 6.69c-.16.32-.1.7.15.95.15.15.34.23.54.23.15 0 .29-.04.42-.13l11-7c.27-.17.4-.49.31-.8zM8.78 18.35l2.34-4.68c.11-.22.11-.48 0-.7-.12-.22-.33-.38-.57-.42l-3.8-1.52V6.2l5.98-2 -1.66 5.53c-.07.23-.03.48.1.68s.35.32.58.32h4.59l-7.56 7.62z"/></svg>
