<svg xmlns="http://www.w3.org/2000/svg" viewBox="0 0 512 512"><path d="M502.063,241.669l-70.872-122.754c-1.934-3.347-6.213-4.495-9.562-2.562l-55.868,32.255c-1.607,.928-2.781,2.457-3.262,4.25-.48,1.793-.229,3.704,.699,5.312l6.591,11.417-56.311-14.409c-17.833-4.778-34.977-2.521-50.96,6.709l-15.026,8.675-15.025-8.675c-15.988-9.229-33.134-11.487-50.962-6.709l-32.414,8.685c.685-1.481,.837-3.161,.411-4.75-.48-1.793-1.654-3.322-3.262-4.25l-55.868-32.255c-3.349-1.934-7.629-.785-9.562,2.562L9.938,247.922c-1.933,3.348-.785,7.629,2.562,9.562l55.868,32.256c1.073,.62,2.282,.938,3.5,.938,.606,0,1.216-.079,1.812-.239,1.793-.48,3.322-1.653,4.251-3.261l1.421-2.461c10.687,14.737,11.736,15.641,26.882,25.233,1.784,1.13,3.791,2.401,6.054,3.849-.043,3.675,.881,7.399,2.854,10.815l5.693,9.862c3.34,5.789,8.829,9.457,15.451,10.329,.979,.129,1.947,.193,2.905,.193,2.943,0,5.768-.623,8.381-1.795,.294,.664,.613,1.321,.984,1.965l5.216,9.034c3.153,5.465,8.335,8.928,14.589,9.752,.923,.122,1.836,.182,2.74,.182,3.226,0,6.308-.774,9.09-2.258,.104,.195,.196,.393,.307,.586l4.701,8.143c2.951,5.114,7.802,8.356,13.656,9.128,.863,.114,1.719,.17,2.564,.17,2.098,0,4.125-.368,6.045-1.046,.172,.345,.344,.691,.54,1.029l4.451,7.708c2.853,4.945,7.542,8.079,13.2,8.825,.836,.11,1.664,.165,2.483,.165,4.728,0,9.118-1.826,12.562-5.27l11.097-11.097,14.518,7.848c2.882,1.558,6.032,2.329,9.309,2.329,4.945,0,10.177-1.756,15.192-5.21,6.467-4.453,12.569-12.035,14.336-19.749,2.302,.951,4.754,1.424,7.289,1.424,4.723,0,9.731-1.641,14.576-4.877,7.695-5.141,14.906-14.489,15.401-23.497,4.432-.211,9.081-1.822,13.592-4.835,6.792-4.538,13.204-12.356,14.96-20.321,2.896,1.295,5.944,1.942,8.968,1.942,5.653,0,11.215-2.222,15.503-6.51l8.635-8.634c1.692-1.692,3.057-3.574,4.096-5.592l23.185-18.311,2.711,4.696c1.297,2.246,3.649,3.501,6.069,3.501,1.188,0,2.391-.303,3.493-.939l55.868-32.255c1.607-.928,2.781-2.457,3.262-4.25,.48-1.793,.229-3.704-.699-5.312Zm-432.757,32.447l-43.744-25.256,63.873-110.63,43.744,25.255-63.873,110.63Zm68.812,56.81c-2.308-.304-3.994-1.431-5.158-3.447l-5.694-9.863c-1.635-2.833-1.198-6.156,1.115-8.468l18.062-18.063c.133-.133,.163-.158,.299-.158,.027,0,.059,0,.097,.002,.233,.009,.242,.019,.382,.18,0,.001,.002,.002,.003,.003l15.718,18.179c.187,.216,.175,.517-.025,.72l-11.206,11.207s0,0,0,.001l-7.712,7.712c-1.647,1.647-3.575,2.297-5.879,1.995Zm32.072,19.148c-1.921-.253-3.324-1.191-4.294-2.871l-5.217-9.035c-1.361-2.359-.998-5.125,.929-7.05l16.474-16.472,14.265,16.499-8.898,8.898c-.014,.014-.026,.03-.041,.044l-8.325,8.326c-1.37,1.371-2.964,1.918-4.893,1.66Zm30.496,15.781c-1.525-.201-2.594-.915-3.363-2.248l-4.701-8.144c-1.062-1.838-.782-3.992,.708-5.499l8.983-8.983c.014-.014,.026-.03,.04-.044l5.317-5.317,11.954,13.827-15.106,15.106c-1.088,1.088-2.298,1.504-3.831,1.3Zm30.115,15.562c-.954,.955-1.973,1.301-3.313,1.124-1.337-.176-2.233-.775-2.907-1.944l-4.452-7.71c-.936-1.621-.695-3.449,.63-4.773l13.272-13.274,10.825,12.522-14.055,14.055Zm163.377-91.187l-8.635,8.634c-2.647,2.645-6.45,3.145-9.688,1.275l-73.143-42.224c-3.348-1.933-7.629-.785-9.562,2.562-1.933,3.348-.785,7.629,2.562,9.562l58.282,33.645h0c2.016,1.163,3.143,2.85,3.445,5.159,.339,2.567-3.161,9.128-9.206,13.167-1.75,1.17-6.161,3.695-9.311,1.876l-6.91-3.99s-.008-.005-.012-.008l-2.847-1.643-.068-.039h0l-41.249-23.81c-3.351-1.934-7.63-.784-9.562,2.563-1.933,3.349-.785,7.629,2.563,9.562l41.247,23.808h0s2.926,1.69,2.926,1.69c2.01,1.163,3.134,2.849,3.437,5.153,.338,2.568-3.162,9.13-9.208,13.169-1.75,1.169-6.164,3.693-9.309,1.875l-23.454-13.539c-1.712-1.152-2.839-1.842-2.886-1.869-.459-.265-.938-.467-1.424-.619l-1.374-.793c-3.349-1.933-7.629-.785-9.562,2.563-1.933,3.348-.785,7.629,2.562,9.562l5.588,3.226c4.44,3.109,10.664,8.255,12.298,10.635-.146,2.821-3.346,8.513-8.803,12.271-1.823,1.255-6.439,3.971-9.903,2.097l-13.774-7.446c.227-3.292-.782-6.662-3.079-9.318l-12.284-14.209c-2.367-2.738-5.664-4.318-9.285-4.45-1.346-.049-2.661,.107-3.916,.452l-12.927-14.952c-2.427-2.809-5.809-4.43-9.52-4.564-1.804-.069-3.543,.226-5.159,.837-.012-.014-.021-.029-.033-.042l-14.398-16.654c-2.552-2.953-6.107-4.658-10.014-4.8-1.497-.056-2.936,.112-4.301,.492-.239-.329-.487-.654-.757-.966l-15.717-18.178c-2.706-3.133-6.326-4.868-10.467-5.018-4.121-.159-7.874,1.318-10.804,4.248l-18.061,18.062c-.387,.387-.75,.787-1.102,1.195-1.31-.833-2.529-1.605-3.656-2.319q-13.627-8.63-23.687-22.518c-.92-1.271-1.929-2.663-3.021-4.164l52.359-90.689c.542-.016,1.084-.084,1.612-.226l44.141-11.827c14.114-3.782,27.686-1.993,40.339,5.311l8.025,4.633-56.723,32.748c-1.607,.928-2.781,2.457-3.262,4.25-.48,1.793-.229,3.704,.7,5.312l9.405,16.29c6.857,11.875,20.215,17.385,33.24,13.706l72.136-20.366c9.981-2.817,19.198-1.666,28.179,3.518l75.35,43.505c2.306,1.33,3.596,3.261,3.943,5.899,.347,2.643-.399,4.843-2.281,6.725Zm14.705-14.092c-1.801-4.453-5.007-8.14-9.368-10.657l-75.349-43.504c-12.255-7.075-25.37-8.711-38.983-4.866l-72.136,20.366c-6.756,1.907-13.713-1-17.312-7.234l-5.904-10.227,79.688-46.006c12.65-7.307,26.223-9.094,40.412-5.291l69.647,17.822,44.707,77.435-15.401,12.163Zm33.811-8.277l-63.873-110.63,43.744-25.255,63.873,110.63-43.744,25.255Z"/></svg>