<svg xmlns="http://www.w3.org/2000/svg" viewBox="0 0 32 32"><g data-name="charts 5"><path fill="currentColor" d="M27,2H5A3,3,0,0,0,2,5V27a3,3,0,0,0,3,3H27a3,3,0,0,0,3-3V5A3,3,0,0,0,27,2Zm1,25a1,1,0,0,1-1,1H5a1,1,0,0,1-1-1V5A1,1,0,0,1,5,4H27a1,1,0,0,1,1,1Z"/><path fill="currentColor" d="M23.43,10.34s0,0,0-.06a1,1,0,0,0-.16-.26L20,6.34l0,0a.27.27,0,0,0-.08-.07l-.2-.14-.11,0A1.31,1.31,0,0,0,19.35,6H9.5a1,1,0,0,0-1,1V25a1,1,0,0,0,1,1h13a1,1,0,0,0,1-1V10.68s0,0,0,0A.94.94,0,0,0,23.43,10.34Zm-3.14-.67h0ZM10.5,24V8h7.79v2.68a1,1,0,0,0,1,1H21.5V24Z"/><path fill="currentColor" d="M13 17.58a1 1 0 0 0-1 1v3.29a1 1 0 1 0 2 0V18.58A1 1 0 0 0 13 17.58zM16 15.58a1 1 0 0 0-1 1v5.29a1 1 0 1 0 2 0V16.58A1 1 0 0 0 16 15.58zM19 13.58a1 1 0 0 0-1 1v7.29a1 1 0 1 0 2 0V14.58A1 1 0 0 0 19 13.58z"/></g></svg>