<svg xmlns="http://www.w3.org/2000/svg" viewBox="0 0 64 64"><path d="M48,60H16a5,5,0,0,1-5-5V13a5,5,0,0,1,5-5h5v2H16a3,3,0,0,0-3,3V55a3,3,0,0,0,3,3H48a3,3,0,0,0,3-3V13a3,3,0,0,0-3-3H43V8h5a5,5,0,0,1,5,5V55A5,5,0,0,1,48,60Zm1-5V13a1,1,0,0,0-1-1H43v2h4V54H17V14h4V12H16a1,1,0,0,0-1,1V55a1,1,0,0,0,1,1H48A1,1,0,0,0,49,55ZM41,17V9a1,1,0,0,0-1-1H36a4,4,0,0,0-8,0H24a1,1,0,0,0-1,1v8a1,1,0,0,0,1,1H40A1,1,0,0,0,41,17ZM25,10h4a1,1,0,0,0,1-1V8a2,2,0,0,1,4,0V9a1,1,0,0,0,1,1h4v6H25Zm10,2H29v2h6Zm8,11H33v2H43Zm0,6H33v2H43Zm0,6H33v2H43Zm0,6H33v2H43ZM29,48V42a1,1,0,0,0-1-1H22a1,1,0,0,0-1,1v6a1,1,0,0,0,1,1h6A1,1,0,0,0,29,48Zm-6-5h4v4H23Zm20-2H33v2H43ZM29,48V42a1,1,0,0,0-1-1H22a1,1,0,0,0-1,1v6a1,1,0,0,0,1,1h6A1,1,0,0,0,29,48Zm-6-5h4v4H23Zm20,4H33v2H43ZM24.71,28.71l4-4-1.42-1.42-3.42,3.42-2.32-1.54-1.1,1.66,3,2A1,1,0,0,0,24,29,1,1,0,0,0,24.71,28.71Zm0,8,4-4-1.42-1.42-3.42,3.42-2.32-1.54-1.1,1.66,3,2A1,1,0,0,0,24,37,1,1,0,0,0,24.71,36.71Z" data-name="05 Survey, Checklist ,Clipboard, Document"/></svg>