<svg xmlns="http://www.w3.org/2000/svg" viewBox="0 0 513.99 484.78"><g data-name="Layer 2"><g data-name="Layer 1"><path fill="currentColor" d="M256.37,142.3a5.36,5.36,0,0,0-5.37,5.36v26.85h10.73V147.66A5.36,5.36,0,0,0,256.37,142.3Z"/><path fill="currentColor" d="M401.48 228.2a5.37 5.37 0 01-5.37-5.37V196A16.12 16.12 0 00380 179.88H132.88a16.12 16.12 0 00-16.1 16.1v26.85a5.37 5.37 0 01-10.74 0V196a26.87 26.87 0 0126.84-26.84H380A26.87 26.87 0 01406.85 196v26.85A5.37 5.37 0 01401.48 228.2zM487.38 405.37H476.64V378.52a16.12 16.12 0 00-16.1-16.1H342.42a16.12 16.12 0 00-16.1 16.1v26.85H315.58V378.52a26.87 26.87 0 0126.84-26.84H460.54a26.87 26.87 0 0126.84 26.84z"/><polygon fill="currentColor" points="406.69 357.07 395.95 357.02 396.06 324.83 406.8 324.88 406.69 357.07"/><path fill="currentColor" d="M197.31,405.37H186.57V378.52a16.12,16.12,0,0,0-16.11-16.1H52.35a16.12,16.12,0,0,0-16.11,16.1v26.85H25.51V378.52a26.87,26.87,0,0,1,26.84-26.84H170.46a26.87,26.87,0,0,1,26.85,26.84Z"/><polygon fill="currentColor" points="116.62 357.07 105.88 357.02 105.99 324.83 116.72 324.88 116.62 357.07"/><path fill="currentColor" d="M252.94 67a33.52 33.52 0 10-31.71-31.75A33.52 33.52 0 00252.94 67zM303.58 139.29a11 11 0 0010.82-13.22C308.62 97 284.91 70.94 256.5 70.91s-52.16 26-58 55a11 11 0 0010.78 13.24z"/><path fill="currentColor" d="M109.33 275a19.92 19.92 0 10-18.84-18.87A19.93 19.93 0 00109.33 275zM139.43 318a6.56 6.56 0 006.43-7.85c-3.44-17.29-17.53-32.76-34.41-32.78s-31 15.42-34.47 32.7a6.55 6.55 0 006.41 7.87zM399.91 275a19.92 19.92 0 10-18.85-18.87A19.92 19.92 0 00399.91 275zM430 318a6.55 6.55 0 006.43-7.85C433 292.85 418.91 277.38 402 277.36s-31 15.42-34.47 32.7a6.56 6.56 0 006.41 7.87z"/><path fill="currentColor" d="M319.19 445.88a18 18 0 10-17.06-17.08A18 18 0 00319.19 445.88zM346.44 484.78a5.94 5.94 0 005.82-7.11C349.15 462 336.4 448 321.11 448S293 462 289.9 477.6a5.94 5.94 0 005.8 7.13zM480.8 445.88a18 18 0 10-17.06-17.08A18 18 0 00480.8 445.88zM508.05 484.78a5.94 5.94 0 005.82-7.11C510.76 462 498 448 482.72 448s-28.07 14-31.21 29.61a5.94 5.94 0 005.8 7.13zM29.41 445.88A18 18 0 1012.35 428.8 18 18 0 0029.41 445.88zM56.66 484.78a5.93 5.93 0 005.82-7.11C59.38 462 46.62 448 31.33 448S3.26 462 .12 477.6a5.94 5.94 0 005.8 7.13zM191 445.88A18 18 0 10174 428.8 18 18 0 00191 445.88zM218.27 484.78a5.93 5.93 0 005.82-7.11C221 462 208.23 448 192.94 448s-28.07 14-31.21 29.61a5.94 5.94 0 005.8 7.13z"/></g></g></svg>