<svg xmlns="http://www.w3.org/2000/svg" width="163.839" height="163.839" fill-rule="evenodd" clip-rule="evenodd" image-rendering="optimizeQuality" shape-rendering="geometricPrecision" text-rendering="geometricPrecision" viewBox="0 0 1707 1707"><path fill-rule="nonzero" d="M436 0l835 0c105,0 190,86 190,190 0,11 -9,20 -20,20l-86 0 0 162c0,227 -153,420 -362,481 209,61 362,255 362,482l0 161 86 0c11,0 20,9 20,20 0,105 -85,191 -190,191l-835 0c-105,0 -191,-86 -191,-191 0,-11 9,-20 20,-20l87 0 0 -161c0,-227 153,-421 361,-482 -208,-61 -361,-254 -361,-481l0 -162 -87 0c-11,0 -20,-9 -20,-20 0,-104 86,-190 191,-190zm75 1377l685 0 0 -42c0,-300 -367,-459 -584,-242 -62,63 -101,148 -101,242l0 42zm705 40l-725 0c-11,0 -20,-9 -20,-20l0 -62c0,-335 410,-513 652,-270 70,69 113,165 113,270l0 62c0,11 -9,20 -20,20zm-363 -544c-254,0 -461,208 -461,462l0 161 923 0 0 -161c0,-254 -208,-462 -462,-462zm-417 794l835 0c75,0 139,-57 149,-131l-85 0 -963 0 -85 0c10,74 73,131 149,131zm712 -1289l-589 0c5,254 317,387 502,201 52,-52 85,-123 87,-201zm-609 -40l629 0c22,0 20,22 20,34 0,293 -358,448 -571,236 -68,-69 -98,-150 -98,-250 0,-11 9,-20 20,-20zm776 -128l-923 0 0 162c0,253 207,461 461,461 254,0 462,-208 462,-461l0 -162zm-44 -170l-835 0c-76,0 -139,57 -149,130l85 0 963 0 85 0c-10,-73 -74,-130 -149,-130z"/></svg>